{"extensionsUsed" : ["KHR_materials_emissive_strength"], "accessors" : [{"bufferView" : 0, "byteOffset" : 0, "componentType" : 5123, "count" : 3684, "type" : "SCALAR", "max" : [3672], "min" : [0]}, {"bufferView" : 1, "byteOffset" : 0, "componentType" : 5126, "count" : 3673, "type" : "VEC3", "max" : [0.999829113483429, 1.0009301900863647, 1.0017833709716797], "min" : [-1.0001885890960693, -0.9818867444992065, -0.9991334080696106], "name" : "POSITION"}, {"bufferView" : 1, "byteOffset" : 12, "componentType" : 5126, "count" : 3673, "type" : "VEC2", "max" : [1.0000001192092896, 0.9391283392906189], "min" : [8.940696716308594E-08, 0.012925028800964355], "name" : "TEXCOORD_0"}, {"bufferView" : 1, "byteOffset" : 20, "componentType" : 5126, "count" : 3673, "type" : "VEC3", "max" : [0.999794065952301, 1.0000044107437134, 0.9983310699462891], "min" : [-0.9986696839332581, -0.9733263254165649, -0.9997791647911072], "name" : "NORMAL"}, {"bufferView" : 0, "byteOffset" : 7368, "componentType" : 5123, "count" : 2565, "type" : "SCALAR", "max" : [2564], "min" : [0]}, {"bufferView" : 2, "byteOffset" : 0, "componentType" : 5126, "count" : 2565, "type" : "VEC3", "max" : [1.0460973978042603, 1.0391769409179688, 1.0562149286270142], "min" : [-1.0424513816833496, -0.916206955909729, -1.0396809577941895], "name" : "POSITION"}, {"bufferView" : 2, "byteOffset" : 12, "componentType" : 5126, "count" : 2565, "type" : "VEC2", "max" : [0.9992101192474365, 0.8271376490592957], "min" : [0.002230448881164193, 0.03932154178619385], "name" : "TEXCOORD_0"}, {"bufferView" : 2, "byteOffset" : 20, "componentType" : 5126, "count" : 2565, "type" : "VEC3", "max" : [0.9968100786209106, 0.9888739585876465, 0.9877527952194214], "min" : [-0.9602832198143005, -0.8251211643218994, -0.9823906421661377], "name" : "NORMAL"}, {"bufferView" : 0, "byteOffset" : 12500, "componentType" : 5123, "count" : 5421, "type" : "SCALAR", "max" : [4486], "min" : [0]}, {"bufferView" : 3, "byteOffset" : 0, "componentType" : 5126, "count" : 4487, "type" : "VEC3", "max" : [1.0460973978042603, 1.0391769409179688, 1.0562149286270142], "min" : [-1.0424513816833496, -0.9818867444992065, -1.0396809577941895], "name" : "POSITION"}, {"bufferView" : 3, "byteOffset" : 12, "componentType" : 5126, "count" : 4487, "type" : "VEC2", "max" : [0.9992101192474365, 0.9391283392906189], "min" : [1.1920928955078125E-07, 0.03932154178619385], "name" : "TEXCOORD_0"}, {"bufferView" : 3, "byteOffset" : 20, "componentType" : 5126, "count" : 4487, "type" : "VEC3", "max" : [0.9969960451126099, 1.0000044107437134, 0.9984110593795776], "min" : [-0.9965749979019165, -0.9917609691619873, -0.9975062012672424], "name" : "NORMAL"}, {"bufferView" : 0, "byteOffset" : 23344, "componentType" : 5123, "count" : 498, "type" : "SCALAR", "max" : [462], "min" : [0]}, {"bufferView" : 4, "byteOffset" : 0, "componentType" : 5126, "count" : 463, "type" : "VEC3", "max" : [0.36853307485580444, -0.8757662773132324, 0.4481832981109619], "min" : [-0.39067327976226807, -1.0673469305038452, -0.4113941490650177], "name" : "POSITION"}, {"bufferView" : 4, "byteOffset" : 12, "componentType" : 5126, "count" : 463, "type" : "VEC2", "max" : [0.9985775947570801, 0.9924459457397461], "min" : [0.006240673363208771, 0.8399472236633301], "name" : "TEXCOORD_0"}, {"bufferView" : 4, "byteOffset" : 20, "componentType" : 5126, "count" : 463, "type" : "VEC3", "max" : [0.9820055961608887, 0.42940035462379456, 0.9986106157302856], "min" : [-0.9992012977600098, -0.9995934367179871, -0.966898500919342], "name" : "NORMAL"}], "asset" : {"generator" : "Aspose.3D 23.4.0", "version" : "2.0"}, "buffers" : [{"uri" : "data:application/octet-stream;base64,", "byteLength" : 413736}], "bufferViews" : [{"buffer" : 0, "byteOffset" : 0, "byteLength" : 24340, "target" : 34963}, {"buffer" : 0, "byteOffset" : 24344, "byteLength" : 117888, "byteStride" : 32, "target" : 34962}, {"buffer" : 0, "byteOffset" : 142236, "byteLength" : 82080, "byteStride" : 32, "target" : 34962}, {"buffer" : 0, "byteOffset" : 224320, "byteLength" : 173472, "byteStride" : 32, "target" : 34962}, {"buffer" : 0, "byteOffset" : 397796, "byteLength" : 15936, "byteStride" : 32, "target" : 34962}], "materials" : [{"name" : "Material.009", "extensions" : {"KHR_materials_emissive_strength" : {"emissiveStrength" : 7}}, "pbrMetallicRoughness" : {"baseColorFactor" : [0, 0, 0, 1], "metallicFactor" : 1, "roughnessFactor" : 1}, "emissiveFactor" : [0.21455493569374084, 0.0020569139160215855, 1], "alphaMode" : "OPAQUE", "doubleSided" : true}, {"name" : "Material.008", "pbrMetallicRoughness" : {"baseColorFactor" : [0.053990308195352554, 0, 0.7874124050140381, 1], "metallicFactor" : 0, "roughnessFactor" : 0.5}, "emissiveFactor" : [0.03331267436591645, 0, 0.4999999403953552], "alphaMode" : "OPAQUE", "doubleSided" : true}, {"name" : "Material.010", "pbrMetallicRoughness" : {"baseColorFactor" : [0.021883904933929443, 0, 0.45753368735313416, 1], "metallicFactor" : 0, "roughnessFactor" : 0.5}, "emissiveFactor" : [0, 0, 0], "alphaMode" : "OPAQUE", "doubleSided" : true}, {"name" : "Material.005", "pbrMetallicRoughness" : {"baseColorFactor" : [0.02090819925069809, 0, 0.805510401725769, 1], "metallicFactor" : 0, "roughnessFactor" : 0.5}, "emissiveFactor" : [0, 0, 0], "alphaMode" : "OPAQUE", "doubleSided" : true}], "meshes" : [{"primitives" : [{"attributes" : {"POSITION" : 1, "TEXCOORD_0" : 2, "NORMAL" : 3}, "indices" : 0, "material" : 0, "mode" : 4}, {"attributes" : {"POSITION" : 5, "TEXCOORD_0" : 6, "NORMAL" : 7}, "indices" : 4, "material" : 1, "mode" : 4}, {"attributes" : {"POSITION" : 9, "TEXCOORD_0" : 10, "NORMAL" : 11}, "indices" : 8, "material" : 2, "mode" : 4}, {"attributes" : {"POSITION" : 13, "TEXCOORD_0" : 14, "NORMAL" : 15}, "indices" : 12, "material" : 3, "mode" : 4}]}], "nodes" : [{"matrix" : [-0.6426734488210761, 0.0008809529981031673, -0.7661398525093179, 0, -0.0010578219220012462, 0.9999973653988821, 0.0020372060316353555, 0, 0.7661396287191817, 0.002119697490004393, -0.6426708237418344, 0, 0, 0, 0, 1], "mesh" : 0, "name" : "Sphere"}], "scene" : 0, "scenes" : [{"nodes" : [0]}]}