{"accessors" : [{"bufferView" : 0, "byteOffset" : 0, "componentType" : 5123, "count" : 22416, "type" : "SCALAR", "max" : [20412], "min" : [0]}, {"bufferView" : 1, "byteOffset" : 0, "componentType" : 5126, "count" : 20413, "type" : "VEC3", "max" : [17.35881805419922, 91.80000305175781, 14.926435470581055], "min" : [-17.35881805419922, -1.399999976158142, -17.122745513916016], "name" : "POSITION"}, {"bufferView" : 1, "byteOffset" : 12, "componentType" : 5126, "count" : 20413, "type" : "VEC3", "max" : [1.0000044107437134, 1.0000044107437134, 1.0000044107437134], "min" : [-1.0000044107437134, -1.0000044107437134, -1.0000044107437134], "name" : "NORMAL"}, {"bufferView" : 0, "byteOffset" : 44832, "componentType" : 5123, "count" : 57330, "type" : "SCALAR", "max" : [56288], "min" : [0]}, {"bufferView" : 2, "byteOffset" : 0, "componentType" : 5126, "count" : 56289, "type" : "VEC3", "max" : [6.362284183502197, 148.60000610351562, 6.362284183502197], "min" : [-6.362284183502197, 88, -6.362284183502197], "name" : "POSITION"}, {"bufferView" : 2, "byteOffset" : 12, "componentType" : 5126, "count" : 56289, "type" : "VEC3", "max" : [1.0000044107437134, 1.0000044107437134, 1.0000044107437134], "min" : [-1.0000044107437134, -1.0000044107437134, -1.0000044107437134], "name" : "NORMAL"}], "asset" : {"generator" : "Aspose.3D 23.4.0", "version" : "2.0"}, "buffers" : [{"uri" : "data:application/octet-stream;base64,", "byteLength" : 2073408}], "bufferViews" : [{"buffer" : 0, "byteOffset" : 0, "byteLength" : 159492, "target" : 34963}, {"buffer" : 0, "byteOffset" : 159496, "byteLength" : 537984, "byteStride" : 24, "target" : 34962}, {"buffer" : 0, "byteOffset" : 697484, "byteLength" : 1375920, "byteStride" : 24, "target" : 34962}], "materials" : [{"name" : "Material.003", "pbrMetallicRoughness" : {"baseColorFactor" : [0.7379103302955627, 0, 0.7991027235984802, 1], "metallicFactor" : 0, "roughnessFactor" : 0.5}, "emissiveFactor" : [0, 0, 0], "alphaMode" : "OPAQUE", "doubleSided" : true}, {"name" : "Material.001", "pbrMetallicRoughness" : {"baseColorFactor" : [0.7379103302955627, 0, 0.7991027235984802, 1], "metallicFactor" : 0, "roughnessFactor" : 0.5}, "emissiveFactor" : [0, 0, 0], "alphaMode" : "OPAQUE", "doubleSided" : true}], "meshes" : [{"primitives" : [{"attributes" : {"POSITION" : 1, "NORMAL" : 2}, "indices" : 0, "material" : 0, "mode" : 4}, {"attributes" : {"POSITION" : 4, "NORMAL" : 5}, "indices" : 3, "material" : 1, "mode" : 4}]}], "nodes" : [{"matrix" : [0.1500430405139923, 0, 0, 0, 0, 0.16107098758220673, 0, 0, 0, 0, 0.14264023303985596, 0, 0, 0, 0, 1], "mesh" : 0, "name" : "CN Tower base miniworld3d"}], "scene" : 0, "scenes" : [{"nodes" : [0]}]}