{"accessors" : [{"bufferView" : 0, "byteOffset" : 0, "componentType" : 5123, "count" : 14778, "type" : "SCALAR", "max" : [13341], "min" : [0]}, {"bufferView" : 1, "byteOffset" : 0, "componentType" : 5126, "count" : 13342, "type" : "VEC3", "max" : [75, 44.25, 33], "min" : [-33, -6.902532920683853E-30, -75], "name" : "POSITION"}, {"bufferView" : 1, "byteOffset" : 12, "componentType" : 5126, "count" : 13342, "type" : "VEC3", "max" : [1.0000044107437134, 1.0000044107437134, 1.0000044107437134], "min" : [-1.0000044107437134, -1.0000044107437134, -1.0000044107437134], "name" : "NORMAL"}], "asset" : {"generator" : "Aspose.3D 23.4.0", "version" : "2.0"}, "buffers" : [{"uri" : "data:application/octet-stream;base64,", "byteLength" : 384236}], "bufferViews" : [{"buffer" : 0, "byteOffset" : 0, "byteLength" : 29556, "target" : 34963}, {"buffer" : 0, "byteOffset" : 29560, "byteLength" : 354672, "byteStride" : 24, "target" : 34962}], "materials" : [{"name" : "Material.001", "pbrMetallicRoughness" : {"baseColorFactor" : [0.7850207686424255, 0, 0.8000000715255737, 1], "metallicFactor" : 0, "roughnessFactor" : 0.5}, "emissiveFactor" : [0, 0, 0], "alphaMode" : "OPAQUE", "doubleSided" : true}], "meshes" : [{"primitives" : [{"attributes" : {"POSITION" : 1, "NORMAL" : 2}, "indices" : 0, "material" : 0, "mode" : 4}]}], "nodes" : [{"matrix" : [1, 0, 0, 0, 0, 1, 0, 0, 0, 0, 1, 0, -21.43340301513672, 0, 20.85167121887207, 1], "mesh" : 0, "name" : "uploads_files_4186617_Aztec+temple"}], "scene" : 0, "scenes" : [{"nodes" : [0]}]}